Motion_pu05
version=1
nRows=13
nColumns=43
inDegrees=yes
endheader
time	pelvis_tilt	pelvis_list	pelvis_rotation	pelvis_tx	pelvis_ty	pelvis_tz	hip_flexion_r	hip_adduction_r	hip_rotation_r	knee_angle_r	ankle_angle_r	subtalar_angle_r	mtp_angle_r	hip_flexion_l	hip_adduction_l	hip_rotation_l	knee_angle_l	ankle_angle_l	subtalar_angle_l	mtp_angle_l	lumbar_extension	lumbar_bending	lumbar_rotation	neck_flexion	neck_lateral_bending	neck_rotation	arm_flex_r	arm_add_r	arm_rot_r	elbow_flex_r	pro_sup_r	wrist_flex_r	wrist_dev_r	hand_finger_flex_r	arm_flex_l	arm_add_l	arm_rot_l	elbow_flex_l	pro_sup_l	wrist_flex_l	wrist_dev_l	hand_finger_flex_l
      2.61000000	     -0.07635405	     12.44589115	    -92.83450042	     -0.01901035	      0.91604181	      1.26307324	      6.69729302	     -4.32971727	     -8.42026738	     -9.55429946	     17.77741071	     -1.14720364	     -6.96475544	      4.77952280	     -1.27484239	    -13.43526957	    -11.35371708	     23.96121480	      1.47750090	    -11.81488415	     23.33373111	     -1.82913234	    -16.00866868	    -15.96515245	      1.39444432	     24.43604782	   -232.03943163	    -38.11742567	   -346.43495620	     79.08362394	    109.42538293	      4.49343821	      5.29938446	     61.02768606	    192.60199863	    -40.45714227	     88.89552216	     74.68951097	     98.06355242	     -4.21858032	     28.12528151	     79.11437991
      2.61250000	     -0.09738416	     12.44852904	    -92.82397979	     -0.01852848	      0.91602275	      1.26265577	      6.71292135	     -4.35343511	     -8.41389845	     -9.52100603	     17.77896300	     -1.14831645	     -6.97098068	      4.80896873	     -1.23271601	    -13.43202400	    -11.30556731	     23.96328302	      1.47715121	    -11.82000376	     23.29778236	     -1.77061994	    -16.00798528	    -15.99125616	      1.39503587	     24.43952896	   -232.06157913	    -38.15177186	   -346.52878170	     79.17992891	    109.41847577	      4.43726680	      5.28266056	     60.99209165	    192.62490110	    -40.55702762	     88.87760825	     74.69166969	     98.06822359	     -4.27984914	     28.11117972	     79.08305103
      2.61500000	     -0.08397120	     12.40464602	    -92.82264450	     -0.01871788	      0.91630680	      1.26245520	      6.65157298	     -4.33482249	     -8.21232098	     -9.46662959	     17.69972792	     -1.35362129	     -7.64689880	      4.64935205	     -1.20362566	    -13.34907267	    -11.04448156	     23.84931295	      1.18805848	    -12.38436667	     23.27042361	     -1.77511405	    -16.27873014	    -16.13216216	      1.19475255	     24.81628998	   -232.66353550	    -37.77775693	   -346.98241975	     79.42919050	    109.19545949	      2.62246633	      4.91913145	     58.57943712	    193.24767541	    -40.79737062	     90.11693111	     75.22232545	     98.24331328	     -8.31993165	     27.27173967	     77.38667200
      2.61750000	     -0.08358829	     12.41071509	    -92.81521105	     -0.01860163	      0.91621064	      1.26228526	      6.65041166	     -4.33692390	     -8.21271955	     -9.46418408	     17.70001833	     -1.35376180	     -7.64726178	      4.64949383	     -1.20039842	    -13.34869515	    -11.04298561	     23.84923320	      1.18844596	    -12.38468634	     23.26675439	     -1.76658187	    -16.27010978	    -16.13369699	      1.19562257	     24.81611499	   -232.67012775	    -37.77873772	   -346.98546176	     79.43150410	    109.19558423	      2.62134344	      4.91904920	     58.57857015	    193.25182979	    -40.80028760	     90.11468425	     75.22361757	     98.24299462	     -8.32118354	     27.27147206	     77.38687482
      2.62000000	     -0.03735269	     12.43384873	    -92.85251284	     -0.01856582	      0.91642470	      1.26200810	      6.62102003	     -4.38215421	     -8.16315980	     -9.26430797	     17.57202998	     -1.31230284	     -7.80450701	      4.60483391	     -1.11920395	    -13.34274466	    -10.81544540	     23.71807821	      1.18077110	    -12.51728162	     23.33116620	     -1.80483689	    -16.32708913	    -16.51179926	      1.26731813	     24.82826061	   -233.17060369	    -37.59941507	   -347.53238742	     79.75993918	    109.47623165	      1.99793627	      4.88053213	     58.10499522	    193.25841293	    -40.98693563	     90.04154462	     75.53411778	     98.22780738	     -9.01200532	     27.11259269	     77.22571950
      2.62250000	     -0.05012390	     12.44061891	    -92.84988275	     -0.01827975	      0.91639024	      1.26168948	      6.63676457	     -4.39462633	     -8.16948002	     -9.23820619	     17.57867610	     -1.31671755	     -7.80844044	      4.62209818	     -1.09333480	    -13.33808651	    -10.79228390	     23.71991677	      1.18162665	    -12.52078706	     23.30258471	     -1.76018467	    -16.30601527	    -16.50781142	      1.26174820	     24.83390495	   -233.18262035	    -37.64095719	   -347.57764571	     79.82241186	    109.47511744	      1.97495943	      4.87145867	     58.09030401	    193.27784472	    -41.02884499	     90.03875889	     75.55696239	     98.22846479	     -9.03735911	     27.10522349	     77.21850065
      2.62500000	      0.00431762	     12.40688903	    -92.89667528	     -0.01845075	      0.91661559	      1.26144708	      6.57106709	     -4.41738720	     -8.11473827	     -9.11175384	     17.49839443	     -1.39981071	     -8.08318056	      4.51459297	     -1.03446938	    -13.31568690	    -10.60744351	     23.53967695	      1.03931613	    -12.76060957	     23.26681733	     -1.83781097	    -16.33846735	    -16.68001850	      1.21706345	     25.04905028	   -233.62822882	    -37.57014540	   -347.99154729	     80.20681975	    109.96242577	      0.68117426	      4.63783824	     57.08553298	    193.46569416	    -41.13296099	     90.42544147	     75.90851236	     98.43901290	    -10.88979039	     26.67133805	     76.47972363
      2.62750000	     -0.00456502	     12.40962748	    -92.87869677	     -0.01821966	      0.91657239	      1.26127457	      6.57352846	     -4.42560069	     -8.11549943	     -9.10461027	     17.50058807	     -1.40108027	     -8.08433699	      4.52041882	     -1.01838373	    -13.31473374	    -10.59991840	     23.54186022	      1.03961012	    -12.76149081	     23.26101347	     -1.81162785	    -16.32111954	    -16.67631656	      1.22077820	     25.04879994	   -233.64527700	    -37.57282027	   -348.00493248	     80.22616756	    109.95775939	      0.67829140	      4.63509856	     57.08291331	    193.48160290	    -41.15386606	     90.41586890	     75.91405920	     98.43845493	    -10.89830044	     26.66930974	     76.47861829
      2.63000000	     -0.01009151	     12.44465922	    -92.90927196	     -0.01819161	      0.91672379	      1.26088678	      6.58926621	     -4.39726420	     -8.10723766	     -9.00123401	     17.49890921	     -1.41027081	     -8.12821562	      4.51323026	     -1.01115715	    -13.28362129	    -10.44129692	     23.57412073	      1.00612025	    -12.79478603	     23.27792126	     -1.77001911	    -16.33366594	    -16.57835202	      1.22646452	     25.05666091	   -233.96476992	    -37.49329786	   -348.43180451	     80.58753531	    109.90949292	      0.45354350	      4.55968287	     56.93576792	    193.52279411	    -41.43580932	     90.28950859	     76.38296844	     98.41759579	    -11.25893220	     26.53291790	     76.37601609
      2.63250000	     -0.02684117	     12.44497775	    -92.89338770	     -0.01782903	      0.91671188	      1.26068431	      6.60192000	     -4.41558159	     -8.10638218	     -8.98619915	     17.49855226	     -1.41171112	     -8.13050486	      4.51836574	     -0.98196535	    -13.28292714	    -10.43390207	     23.57290212	      1.00613452	    -12.79674956	     23.26316613	     -1.72801530	    -16.32802413	    -16.58783346	      1.22585517	     25.05736102	   -233.98199565	    -37.49543822	   -348.45615478	     80.62781262	    109.90815060	      0.43628710	      4.55254407	     56.92642180	    193.54701791	    -41.45511352	     90.27000611	     76.38280819	     98.41937637	    -11.28384964	     26.52741779	     76.36677434
      2.63500000	      0.01315544	     12.40960655	    -92.90167380	     -0.01778011	      0.91696043	      1.26037077	      6.52338347	     -4.43963904	     -8.04275579	     -8.84911478	     17.31939880	     -1.66289098	     -8.54368322	      4.43329692	     -0.90319003	    -13.18493720	    -10.25117533	     23.36333161	      0.69771644	    -13.15135498	     23.20486371	     -1.73053705	    -16.54104601	    -16.65605213	      1.17636969	     25.34645566	   -234.44719166	    -37.18696419	   -348.90283681	     80.95789622	    110.20708747	     -1.29684190	      4.08216689	     55.58750452	    194.03004966	    -41.72891948	     91.13257883	     76.85045792	     98.60989901	    -14.63455761	     25.76046818	     75.22529385
      2.63750000	     -0.00719607	     12.42072084	    -92.91243929	     -0.01778887	      0.91709177	      1.26007188	      6.52847283	     -4.40431887	     -8.01385505	     -8.79241703	     17.30557162	     -1.64167425	     -8.57760255	      4.43727336	     -0.92654549	    -13.16092501	    -10.20482469	     23.37008379	      0.68544209	    -13.17849645	     23.20103796	     -1.70498693	    -16.56030976	    -16.72307930	      1.04861897	     25.35279803	   -234.69494629	    -37.16929450	   -349.16625419	     81.21889657	    110.14428673	     -1.37048239	      4.05320244	     55.53693646	    194.06098942	    -41.84218802	     91.04934836	     77.04087958	     98.56688572	    -14.81267693	     25.71104220	     75.24645613
      2.64000000	     -0.02203624	     12.42203524	    -92.88836107	     -0.01745670	      0.91706784	      1.25989788	      6.53598526	     -4.41681308	     -8.01257617	     -8.78188823	     17.30514152	     -1.64176526	     -8.57935409	      4.44366529	     -0.90104632	    -13.16076575	    -10.19745135	     23.36959395	      0.68594361	    -13.17995048	     23.18998229	     -1.67018267	    -16.54608939	    -16.72929578	      1.04845646	     25.35301068	   -234.70530831	    -37.16838033	   -349.19856156	     81.25420971	    110.14049976	     -1.38277888	      4.04830054	     55.53199117	    194.07617472	    -41.86752876	     91.03474785	     77.04189615	     98.56594389	    -14.82764682	     25.70840477	     75.24441284
